<?xml version="1.0" standalone="no"?>
<!DOCTYPE svg PUBLIC "-//W3C//DTD SVG 20010904//EN"
 "http://www.w3.org/TR/2001/REC-SVG-20010904/DTD/svg10.dtd">
<svg version="1.0" xmlns="http://www.w3.org/2000/svg"
 width="115.000000pt" height="115.000000pt" viewBox="0 0 115.000000 115.000000"
 preserveAspectRatio="xMidYMid meet">
<metadata>
Created by potrace 1.11, written by Peter Selinger 2001-2013
</metadata>
<g transform="translate(0.000000,115.000000) scale(0.100000,-0.100000)"
fill="#000000" stroke="none">
<path d="M394 1123 c-22 -16 -24 -43 -3 -64 17 -17 19 -28 14 -62 -10 -61 -18
-70 -66 -74 -63 -6 -149 -44 -173 -75 -35 -49 1 -102 90 -133 36 -12 39 -16
42 -54 4 -48 -16 -56 -42 -16 -33 50 -104 20 -91 -39 4 -17 6 -63 6 -103 -1
-62 -4 -76 -26 -99 -30 -33 -32 -77 -5 -104 23 -23 38 -26 37 -8 -1 39 5 58
18 58 15 0 17 -6 18 -48 0 -15 5 -22 16 -21 30 3 39 -1 46 -18 4 -13 -9 -31
-52 -70 -32 -29 -64 -53 -70 -53 -23 0 -14 -30 10 -31 108 -4 529 0 535 5 4 4
-2 14 -13 22 -56 40 -125 109 -123 123 2 9 12 21 23 26 21 11 20 -1 24 244 1
33 4 42 15 38 8 -3 20 1 26 9 9 10 33 14 80 14 82 0 99 -13 80 -60 -27 -66 18
-153 86 -166 39 -7 96 18 119 52 24 36 22 97 -5 133 -12 17 -26 31 -31 31 -15
0 -10 103 6 124 21 28 4 36 -73 36 -48 0 -64 -4 -69 -16 -3 -9 0 -20 8 -25 12
-7 11 -9 -2 -9 -9 0 -24 -9 -33 -19 -14 -15 -32 -19 -82 -20 -36 0 -73 5 -83
11 -25 15 -72 2 -78 -22 -7 -26 -33 -26 -34 0 -1 11 -2 30 -2 42 -1 16 7 24
36 32 52 15 107 61 107 90 0 54 -92 112 -190 118 -43 3 -45 6 -55 75 -5 35 -2
46 15 63 19 19 20 24 7 43 -15 23 -45 32 -63 20z m54 -32 c6 -37 -26 -52 -52
-25 -12 12 -13 20 -5 35 15 28 53 21 57 -10z m530 -370 c2 0 -3 -7 -10 -15 -9
-9 -13 -33 -12 -67 1 -46 7 -60 33 -88 65 -69 19 -173 -76 -173 -99 0 -140
161 -43 168 22 2 42 11 54 26 l18 23 -31 3 c-17 2 -31 6 -32 10 -1 4 -2 26 -3
49 0 23 -4 45 -8 49 -17 16 -6 20 50 18 31 -1 58 -2 60 -3z m-121 -75 c-5 -32
12 -63 36 -65 20 -2 8 -16 -16 -19 -59 -7 -92 69 -45 102 30 22 31 21 25 -18z
m-607 -91 c0 -8 -2 -15 -4 -15 -2 0 -6 7 -10 15 -3 8 -1 15 4 15 6 0 10 -7 10
-15z m-6 -81 c-1 -30 -5 -58 -8 -61 -4 -4 -5 21 -4 55 1 34 5 62 8 62 4 0 5
-25 4 -56z m-16 -80 c23 -16 31 -67 12 -79 -5 -3 -10 3 -10 13 0 20 -17 39
-35 37 -20 -1 -35 -17 -35 -36 0 -11 -4 -17 -10 -14 -19 12 -11 63 12 79 12 9
27 16 33 16 6 0 21 -7 33 -16z"/>
<path d="M906 683 c-11 -11 -6 -23 9 -23 8 0 15 4 15 9 0 13 -16 22 -24 14z"/>
<path d="M830 460 c0 -18 35 -53 64 -64 30 -10 80 11 99 43 9 16 17 31 17 34
0 3 -40 5 -90 5 -78 -1 -90 -3 -90 -18z"/>
<path d="M974 1009 c-8 -14 18 -31 30 -19 9 9 0 30 -14 30 -5 0 -12 -5 -16
-11z"/>
<path d="M900 895 c0 -9 5 -15 11 -13 6 2 11 8 11 13 0 5 -5 11 -11 13 -6 2
-11 -4 -11 -13z"/>
<path d="M910 835 c-14 -17 -5 -51 15 -59 8 -3 24 3 36 13 18 15 20 21 10 39
-13 25 -43 29 -61 7z"/>
</g>
</svg>
